<svg xmlns="http://www.w3.org/2000/svg" viewBox="0 0 512 512">
  <defs>
    <linearGradient id="bgGrad" x1="0%" y1="0%" x2="100%" y2="100%">
      <stop offset="0%" stop-color="#4F46E5"/>
      <stop offset="100%" stop-color="#312E81"/>
    </linearGradient>
  </defs>
  <rect width="512" height="512" rx="128" fill="url(#bgGrad)"/>
  <circle cx="256" cy="270" r="140" fill="#FFFFFF"/>
  <polygon points="256,70 410,130 256,170 102,130" fill="#18181B"/>
  <circle cx="256" cy="130" r="12" fill="#EAB308"/>
  <path d="M256,130 Q330,145 355,190" stroke="#EAB308" stroke-width="8" fill="none"/>
  <!-- Lobo Ears -->
  <path d="M160,200 C120,130 170,90 210,130 Z" fill="#4F46E5"/>
  <path d="M352,200 C392,130 342,90 302,130 Z" fill="#4F46E5"/>
  <!-- Glasses -->
  <circle cx="196" cy="260" r="48" fill="none" stroke="#1E293B" stroke-width="10"/>
  <circle cx="316" cy="260" r="48" fill="none" stroke="#1E293B" stroke-width="10"/>
  <path d="M244,255 L268,255" stroke="#1E293B" stroke-width="10"/>
  <!-- Pupils -->
  <circle cx="196" cy="260" r="18" fill="#1E293B"/>
  <circle cx="316" cy="260" r="18" fill="#1E293B"/>
  <!-- Snout -->
  <ellipse cx="256" cy="330" rx="35" ry="22" fill="#E0E7FF"/>
  <polygon points="256,318 240,328 272,328" fill="#1E293B"/>
  <path d="M256,328 L256,340" stroke="#1E293B" stroke-width="4"/>
</svg>
